# xmcd
#
# Track frame offsets:
#	150
#	13267
#	23332
#	34977
#	47940
#	59585
#	73922
#	84655
#	96255
#	108972
#	118272
#	129302
#	140710
#	151512
#	163047
#	172000
#	181667
#	192712
#
# Disc length: 2691 seconds
#
# Revision: 4
# Processed by: cddbd v1.5.2PL0 Copyright (c) Steve Scherf et al.
# Submitted via: OrangeCD 5.2
#
DISCID=000a8112
DTITLE=Various Artist / Sound of the Swamp - the Best of Excello Records, Vol 1
DYEAR=1990
DGENRE=Blues Compilation
TTITLE0=Slim Harpo / Baby, Scratch My Back
TTITLE1=Lazy Lester / I Hear You Knockin'
TTITLE2=Silas Hogan / Everybody Needs Somebody
TTITLE3=Warren Storm / Prisoner Song
TTITLE4=Carol Fran / One More Chance
TTITLE5=Lonesome Sundown / My Home is A Prison
TTITLE6=Leroy Washington / Wild Cherry
TTITLE7=Lightning Slim / Rooster Blues
TTITLE8=Guitar Gable / This Should Go on Forever
TTITLE9=Charles Sheffield / I Would Be A Sinner
TTITLE10=Al Ferrier / Hey! Baby
TTITLE11=Bobby Jay / Red Sails in the Sunset
TTITLE12=Guitar Gable / Congo Mombo
TTITLE13=Slim Harpo / Rainin' in My Heart
TTITLE14=Johnny Jano / Havin' A Whole Lot of Fun
TTITLE15=Joe Hudson & His Rockin' Dukes / Baby, Give Me A Chance
TTITLE16=Lightning Slim / Bad Luck Blues
TTITLE17=Jay Nelson / Don't You Wanna Man Like Me
EXTD=YEAR: 1990
EXTT0=
EXTT1=
EXTT2=
EXTT3=
EXTT4=
EXTT5=
EXTT6=
EXTT7=
EXTT8=
EXTT9=
EXTT10=
EXTT11=
EXTT12=
EXTT13=
EXTT14=
EXTT15=
EXTT16=
EXTT17=
PLAYORDER=
